<svg width="27" height="25" viewBox="0 0 27 25" fill="none" xmlns="http://www.w3.org/2000/svg">
<path d="M0.291506 17.1537L5.73296 12.4236L6.94536 13.8183L4.9484 15.5542L10.1654 21.5556L8.70728 22.8232L3.4903 16.8217L1.5039 18.5485L0.291506 17.1537ZM17.9408 13.1085C17.8371 14.4972 17.2499 15.6569 16.1792 16.5876C15.1085 17.5184 13.8784 17.9384 12.4888 17.8479C11.094 17.7371 9.93121 17.1464 9.00048 16.0757C8.06363 14.998 7.64354 13.7679 7.74022 12.3853C7.83782 10.9896 8.42196 9.82635 9.49264 8.89562C10.5633 7.96489 11.7965 7.54833 13.1922 7.64593C14.5818 7.73648 15.7451 8.32062 16.6819 9.39835C17.6188 10.4761 18.0384 11.7128 17.9408 13.1085ZM12.6503 15.9638C13.493 16.0227 14.256 15.7552 14.9392 15.1612C15.6225 14.5673 15.9936 13.8489 16.0525 13.0062C16.1124 12.1504 15.8361 11.3702 15.2238 10.6659C14.6115 9.96146 13.8774 9.57933 13.0215 9.51949C12.1657 9.45964 11.3996 9.72363 10.7234 10.3115C10.0472 10.8993 9.67915 11.6211 9.6193 12.477C9.55946 13.3329 9.83569 14.113 10.448 14.8174C11.0603 15.5218 11.7944 15.9039 12.6503 15.9638ZM14.492 4.80941L17.2497 2.41217C17.9541 1.79985 18.7611 1.51887 19.6705 1.56924C20.5729 1.62572 21.3272 2.00264 21.9334 2.69999C22.5396 3.39735 22.8079 4.19677 22.7383 5.09826C22.6616 6.00587 22.271 6.76584 21.5666 7.37816L20.267 8.5079L22.3795 10.9381L20.9214 12.2056L14.492 4.80941ZM19.0822 7.14489L20.3818 6.01516C20.6917 5.74574 20.857 5.41658 20.8775 5.02769C20.892 4.63175 20.7615 4.27529 20.4859 3.95832C20.2042 3.63429 19.8694 3.45541 19.4814 3.42166C19.0935 3.38792 18.7445 3.50576 18.4346 3.77518L17.135 4.90491L19.0822 7.14489Z" fill="black"/>
</svg>
